<svg xmlns="http://www.w3.org/2000/svg" viewBox="0 0 640 360" role="img" aria-labelledby="title desc"><title id="title">Illustration eines mobilen Wassertechnikers</title><desc id="desc">Blaue Musterillustration eines Kundendiensttechnikers vor einem Servicefahrzeug.</desc><defs><linearGradient id="g" x1="0" y1="0" x2="1" y2="1"><stop stop-color="#dcecff"/><stop offset="1" stop-color="#c9f2ef"/></linearGradient></defs><rect width="640" height="360" fill="url(#g)"/><path d="M0 278h640v82H0z" fill="#b6d6e5"/><rect x="55" y="150" width="300" height="142" rx="26" fill="#fff"/><path d="M355 198h92l70 94H355z" fill="#fff"/><rect x="80" y="180" width="140" height="67" rx="11" fill="#1680b8"/><path d="M110 212h80" stroke="#fff" stroke-width="12" stroke-linecap="round"/><circle cx="142" cy="295" r="35" fill="#20384d"/><circle cx="142" cy="295" r="15" fill="#dce8ef"/><circle cx="421" cy="295" r="35" fill="#20384d"/><circle cx="421" cy="295" r="15" fill="#dce8ef"/><circle cx="520" cy="92" r="42" fill="#efc29d"/><path d="M480 91c5-55 80-59 86-4-35-14-54-14-86 4z" fill="#76503c"/><path d="M464 270v-78c0-42 27-65 58-65 35 0 65 25 65 65v78" fill="#176ea0"/><path d="M484 140l38 35 38-35" fill="#f4fbff"/><path d="M500 202h44v42h-44z" fill="#fff" opacity=".85"/><path d="M515 211v24M503 223h38" stroke="#168451" stroke-width="6"/></svg>
