<svg xmlns="http://www.w3.org/2000/svg" viewBox="0 0 640 360" role="img" aria-labelledby="title desc"><title id="title">Illustration einer Haustechnik-Fachfrau</title><desc id="desc">Grünblaue Musterillustration einer Technikerin neben einer Wasserenthärtungsanlage.</desc><defs><linearGradient id="g" x1="0" y1="0" x2="1" y2="1"><stop stop-color="#e2f5ed"/><stop offset="1" stop-color="#d9eaff"/></linearGradient></defs><rect width="640" height="360" fill="url(#g)"/><circle cx="90" cy="64" r="110" fill="#fff" opacity=".35"/><rect x="67" y="118" width="175" height="202" rx="28" fill="#fff"/><rect x="92" y="146" width="125" height="46" rx="11" fill="#193e59"/><circle cx="184" cy="169" r="9" fill="#6bc8f3"/><path d="M105 233c25-28 69-28 97 0M120 267h67" fill="none" stroke="#78a0b7" stroke-width="12" stroke-linecap="round"/><circle cx="417" cy="94" r="47" fill="#efbe98"/><path d="M371 98c-3-69 98-76 98-3-27-20-66-24-98 3z" fill="#403329"/><path d="M346 302v-92c0-49 32-75 72-75s75 27 75 75v92" fill="#168451"/><path d="M380 149l38 39 39-39" fill="#f5fffb"/><path d="M493 204l72-35 17 34-74 36z" fill="#f0c19b"/><circle cx="570" cy="178" r="31" fill="#173c58"/><path d="M570 154v48M546 178h48" stroke="#d8edf8" stroke-width="9"/><path d="M329 239l-58-47-25 30 65 56z" fill="#efbe98"/></svg>
