<svg xmlns="http://www.w3.org/2000/svg" viewBox="0 0 640 360" role="img" aria-labelledby="title desc"><title id="title">Illustration eines Sanitärtechnikers</title><desc id="desc">Blaugrüne Musterillustration eines Fachmanns mit Werkzeugkoffer.</desc><defs><linearGradient id="g" x1="0" y1="0" x2="1" y2="1"><stop stop-color="#dff3ff"/><stop offset="1" stop-color="#bce8d6"/></linearGradient></defs><rect width="640" height="360" fill="url(#g)"/><circle cx="510" cy="62" r="95" fill="#fff" opacity=".35"/><path d="M0 300c120-55 226-32 332-2s206 30 308-10v72H0z" fill="#fff" opacity=".55"/><rect x="70" y="90" width="190" height="170" rx="18" fill="#fff" opacity=".8"/><path d="M102 132h126M102 168h90M102 204h110" stroke="#5c8ca7" stroke-width="14" stroke-linecap="round"/><circle cx="405" cy="106" r="48" fill="#edbd97"/><path d="M359 104c0-57 91-72 101-8-35-14-64-14-101 8z" fill="#263f56"/><path d="M329 292v-74c0-55 38-80 78-80s80 25 80 80v74" fill="#168451"/><path d="M365 152l42 39 43-39" fill="#fff" opacity=".9"/><rect x="287" y="246" width="232" height="74" rx="15" fill="#18384f"/><path d="M359 246v-23h88v23" fill="none" stroke="#18384f" stroke-width="13"/><circle cx="341" cy="283" r="8" fill="#67c7f3"/><circle cx="466" cy="283" r="8" fill="#67c7f3"/></svg>
