<svg version="1.0" preserveAspectRatio="xMidYMid meet" height="666" viewBox="0 0 499.5 499.499998" zoomAndPan="magnify" width="666" xmlns:xlink="http://www.w3.org/1999/xlink" xmlns="http://www.w3.org/2000/svg"><defs><clipPath id="a0ff897820"><path clip-rule="nonzero" d="M 49.898438 50.085938 L 457 50.085938 L 457 449.101562 L 49.898438 449.101562 Z M 49.898438 50.085938"></path></clipPath><clipPath id="78446991fb"><path clip-rule="nonzero" d="M 73.125 50.085938 L 433.679688 50.085938 C 446.507812 50.085938 456.90625 60.484375 456.90625 73.3125 L 456.90625 425.875 C 456.90625 438.703125 446.507812 449.101562 433.679688 449.101562 L 73.125 449.101562 C 60.300781 449.101562 49.898438 438.703125 49.898438 425.875 L 49.898438 73.3125 C 49.898438 60.484375 60.300781 50.085938 73.125 50.085938 Z M 73.125 50.085938"></path></clipPath><clipPath id="4246dfa91e"><path clip-rule="nonzero" d="M 60.300781 57.578125 L 447 57.578125 L 447 442 L 60.300781 442 Z M 60.300781 57.578125"></path></clipPath><clipPath id="6649e7f01e"><path clip-rule="nonzero" d="M 389.222656 405.421875 C 389.222656 405.757812 386.386719 412.144531 382.980469 419.59375 L 376.742188 433.199219 L 352.800781 433.199219 L 328.726562 406.988281 L 328.726562 312.503906 L 358.972656 358.65625 C 375.644531 384.027344 389.222656 405.085938 389.222656 405.421875 M 396.171875 319.003906 L 395.980469 337.042969 L 378.800781 313.964844 C 369.269531 301.3125 361.550781 290.773438 361.609375 290.496094 C 361.609375 290.273438 369.328125 284.613281 378.800781 277.890625 L 395.980469 265.679688 L 396.171875 283.324219 C 396.238281 293.015625 396.238281 309.035156 396.171875 319.003906 M 295.628906 277.390625 C 295.4375 277.507812 289.515625 273.304688 282.496094 268.035156 L 269.621094 258.460938 L 225.914062 258.179688 L 253.199219 213.375 C 268.199219 188.734375 283.902344 163.023438 288.027344 156.246094 L 295.554688 143.917969 L 295.746094 210.511719 C 295.8125 247.144531 295.746094 277.21875 295.621094 277.382812 M 367.261719 135.179688 C 377.816406 138.035156 386.183594 146.378906 389.855469 157.640625 C 392.492188 165.984375 395.257812 191.128906 395.203125 207.203125 C 395.203125 220.480469 394.296875 226.867188 391.078125 235.210938 C 387.019531 245.796875 378.914062 254.980469 370.480469 258.449219 L 366.367188 260.132812 L 338.878906 260.132812 L 335.148438 257.835938 C 328.90625 254.027344 324.976562 248.816406 323.628906 242.488281 C 322.917969 239.296875 321.695312 179.925781 321.628906 147.390625 L 321.628906 134.121094 L 342.484375 134.121094 C 361.144531 134.121094 363.789062 134.238281 367.261719 135.1875 M 351.300781 87.632812 C 360.375 90.09375 368.617188 98.105469 372.800781 108.410156 L 373.703125 110.59375 L 343.839844 110.59375 C 309.535156 110.59375 312.753906 111.265625 315.707031 104.710938 C 322.273438 90.257812 336.300781 83.539062 351.300781 87.625 M 330.511719 58.230469 C 310.945312 61.03125 293.179688 70.664062 278.566406 86.519531 C 271.351562 94.363281 266.910156 100.855469 259.191406 115.085938 C 255.460938 122.027344 216.644531 193.097656 173.070312 273.027344 L 93.699219 418.363281 L 77.546875 429.285156 C 68.664062 435.277344 60.941406 440.488281 60.367188 440.882812 C 59.53125 441.4375 66.808594 441.554688 94.804688 441.613281 L 130.265625 441.613281 L 217.222656 283.390625 L 294.917969 283.390625 L 295.5625 404.363281 L 297.429688 409.125 C 300.96875 418.304688 306.957031 426.929688 312.359375 430.746094 C 318.410156 434.890625 328.003906 438.257812 337.273438 439.3125 C 342.167969 439.929688 446.507812 440.265625 446.507812 439.707031 C 446.507812 439.546875 440.71875 428.335938 433.632812 414.785156 L 420.757812 390.132812 L 420.757812 117.371094 L 418.765625 113.007812 C 417.671875 110.59375 415.09375 105.730469 412.96875 102.140625 C 399.453125 79.066406 380.53125 64.222656 358.511719 59.300781 C 350.53125 57.511719 338.6875 57.058594 330.511719 58.230469"></path></clipPath></defs><g clip-path="url(#a0ff897820)"><g clip-path="url(#78446991fb)"><path fill-rule="nonzero" fill-opacity="1" d="M 49.898438 50.085938 L 456.707031 50.085938 L 456.707031 449.101562 L 49.898438 449.101562 Z M 49.898438 50.085938" fill="#2e3191"></path></g></g><g clip-path="url(#4246dfa91e)"><g clip-path="url(#6649e7f01e)"><path fill-rule="nonzero" fill-opacity="1" d="M 60.300781 57.578125 L 446.25 57.578125 L 446.25 441.605469 L 60.300781 441.605469 Z M 60.300781 57.578125" fill="#ffffff"></path></g></g></svg>