<svg viewBox="0 0 88 16" fill="none" xmlns="http://www.w3.org/2000/svg">
<path fill-rule="evenodd" clip-rule="evenodd" d="M65.2516 0.0422526C63.2572 0.425944 61.8616 1.16634 60.6023 2.5086C58.0088 5.27309 57.6408 9.43681 59.7148 12.5518C61.1359 14.6863 63.6273 16 66.2543 16C67.426 16 69.3395 15.7231 70.0288 15.4539L70.2709 15.3592L70.2808 14.3305C70.2863 13.7646 70.3159 12.4756 70.3468 11.4658C70.3778 10.4561 70.3955 9.63003 70.3864 9.63003C70.3772 9.63012 70.0656 9.84935 69.694 10.1172C68.8041 10.7587 68.0776 10.9878 67.0775 10.9423C65.8904 10.8883 64.9456 10.3285 64.4274 9.37188C63.8037 8.22071 64.0221 6.77433 64.9576 5.86106C66.1952 4.65248 68.1125 4.72148 69.78 6.03446C70.0669 6.26041 70.3245 6.4454 70.3524 6.44549C70.3802 6.44549 70.3778 5.59954 70.3471 4.56551C70.3163 3.5314 70.2866 2.21869 70.2811 1.64833L70.2709 0.611287L69.8069 0.475752C68.7303 0.161332 68.0549 0.0618041 66.7926 0.0315476C66.0661 0.0141191 65.3727 0.0189851 65.2516 0.0422526ZM77.7138 0.130279C75.0135 0.619957 72.8674 2.1802 71.7657 4.45475C71.1075 5.8139 71.022 6.22493 71.0206 8.03776C71.0193 9.79042 71.144 10.4138 71.7335 11.6023C73.3081 14.7766 77.0229 16.4767 81.0514 15.8667C84.4936 15.3454 86.9577 13.2483 87.8079 10.1168C87.9667 9.53147 88 9.17185 88 8.03776C88 6.90367 87.9667 6.54404 87.8079 5.95873C86.968 2.86504 84.5239 0.709046 81.1878 0.119221C80.2645 -0.0440936 78.6469 -0.0388739 77.7138 0.130279ZM0 7.99919V15.7459L4.60107 15.7145L9.20215 15.683L9.99274 15.438C11.5025 14.97 12.3713 14.3067 12.9106 13.2105C13.1866 12.6493 13.2366 12.4505 13.2759 11.7562C13.3332 10.7492 13.1504 10.0043 12.668 9.27854C12.2912 8.71163 11.9246 8.39818 11.1555 7.9853L10.6432 7.71033L10.9184 7.59577C11.0698 7.53277 11.3717 7.30736 11.5894 7.09476C12.2931 6.40762 12.6504 5.33148 12.5685 4.14511C12.423 2.03494 11.1712 0.832195 8.65081 0.380736C8.13972 0.289171 6.97276 0.257852 3.98466 0.255552L0 0.252456V7.99919ZM13.8252 7.99352V15.7346H19.0221H24.2189L24.1956 13.2353L24.1721 10.7361L21.8166 10.7125L19.461 10.6889V5.47073V0.252456H16.6431H13.8252V7.99352ZM29.8989 0.406127C29.8654 0.491942 28.8934 3.28917 27.7388 6.62225C26.5842 9.95533 25.4006 13.3691 25.1086 14.2085L24.5776 15.7346H27.5611C30.3264 15.7346 30.5479 15.7233 30.59 15.5798C30.6151 15.4946 30.7201 15.0567 30.8234 14.6066L31.0114 13.7883H33.1141H35.2167L35.316 14.1643C35.3707 14.3711 35.4852 14.799 35.5706 15.1153L35.7259 15.6904L38.6987 15.7136L41.6715 15.737L41.6207 15.5367C41.5926 15.4266 40.3655 11.9525 38.8936 7.81658L36.2175 0.29669L33.0886 0.273423C30.1696 0.251836 29.9556 0.260683 29.8989 0.406127ZM42.1802 7.99352V15.7346H44.866H47.5518L47.5474 12.7045C47.5438 10.3081 47.511 9.45681 47.3904 8.63395C47.3065 8.06173 47.2695 7.60408 47.3082 7.61709C47.3469 7.63 48.4779 9.45185 49.8213 11.6655L52.264 15.6904L54.9712 15.7137L57.6785 15.7372V7.99476V0.252456H54.9927H52.3069L52.3074 3.06136C52.3077 5.8093 52.3768 6.74496 52.7111 8.53566C52.7514 8.75135 52.741 8.84053 52.68 8.80266C52.6296 8.77135 51.4669 6.83475 50.0964 4.49907L47.6044 0.252456H44.8923H42.1802V7.99352ZM7.03158 4.20934C7.34516 4.44307 7.49363 4.90877 7.39483 5.34882C7.26432 5.93077 6.77252 6.17849 5.74584 6.17937L5.19547 6.1799V5.06174V3.94366L5.99689 3.98958C6.60485 4.02435 6.85467 4.07743 7.03158 4.20934ZM80.8048 5.40863C81.3821 5.70553 81.9258 6.32729 82.1643 6.96312C82.3181 7.37309 82.3456 7.60559 82.3181 8.25893C82.2787 9.19007 82.0676 9.72186 81.5183 10.2737C80.9541 10.8406 80.5019 11.0015 79.4731 11.0014C78.6864 11.0014 78.5444 10.9759 78.1414 10.7623C77.5648 10.4569 77.0168 9.83103 76.8143 9.24722C76.5842 8.58344 76.6024 7.41971 76.8515 6.86704C77.4057 5.6375 78.2912 5.0935 79.6492 5.14817C80.1984 5.17029 80.4531 5.22771 80.8048 5.40863ZM33.5989 7.68388C33.8095 8.5354 34.0393 9.42115 34.1097 9.65232L34.2376 10.0726H33.1353C32.0339 10.0726 32.0329 10.0724 32.09 9.8735C32.1214 9.76397 32.3737 8.77887 32.6506 7.68423C32.9276 6.58969 33.1681 5.79347 33.1851 5.91485C33.2021 6.03632 33.3884 6.83236 33.5989 7.68388ZM7.30888 9.6525C7.83477 9.87748 8.05122 10.1886 8.05007 10.7178C8.04814 11.623 7.57271 11.9352 6.09807 11.9996L5.19547 12.039V10.7334V9.42788L6.09807 9.47423C6.59578 9.4998 7.13893 9.57978 7.30888 9.6525Z" fill="#fff"/>
</svg>
