<?xml version="1.0" encoding="UTF-8"?>
<svg id="Ebene_2" data-name="Ebene 2" xmlns="http://www.w3.org/2000/svg" viewBox="0 0 422.09 84.57">
  <g id="Layer_1" data-name="Layer 1">
    <g>
      <path d="M20.31,42.18c1.07.33,2.69.84,4.36,1.18h.04c1.43.24,3.21.54,5.02.56.79.06,1.55.02,2.34-.01l.39-.02c.85-.02,1.74-.09,2.72-.23,1.17-.11,2.3-.3,3.38-.47h.06c.66-.12,1.3-.22,1.95-.31,1.91-.32,3.52-.55,5.12-.68,1.16-.14,2.34-.19,3.47-.23h.13s1.31-.05,1.31-.05c1.77.06,3.23-.03,4.79.13.47.03.96.05,1.45.07h.1c.96.05,1.87.09,2.73.2.75.09,1.5.14,2.15.18.54.03,1.03.07,1.5.11.74.1,1.41.17,2.01.22-1.21-.69-2.95-1.59-5.2-2.43-1.43-.62-3.04-1.09-4.29-1.43h0c-1.29-.41-2.7-.64-4.19-.89l-.88-.14c-1.75-.17-3.57-.35-5.35-.24-1.94,0-3.86.28-5.56.53h-.06s-5.27.96-5.27.96c-1.6.29-3.3.59-4.94.74-1.32.17-2.61.22-3.86.27l-.77.03-4.27-.02c-1.39-.13-2.61-.17-3.69-.21l-2.01-.16c.52.29,1.1.61,1.76.9,1.13.49,2.26.97,3.54,1.43Z" fill="#fff"/>
      <path d="M61.34,53.32c-.99-.35-2.22-.78-3.49-1.09-.46-.09-.94-.2-1.45-.33l-.24-.06c-1.27-.3-2.57-.62-3.94-.72-1.24-.15-2.26-.26-3.21-.34l-3.31-.08c-.73-.03-1.44.01-2.18.05h-.07c-.38.03-.76.06-1.15.07-1.01.04-2.1.13-3.43.3-1.73.17-3.45.43-5.1.68l-8.62,1.34c-1.09.12-2.17.26-3.3.41-.63.09-1.25.14-1.86.18-.45.03-.91.07-1.36.12-1.32.16-2.64.2-3.8.23-.77.02-1.56.04-2.33.1l-5.59-.04c-1.74-.14-3.31-.2-4.69-.25h-.06c-.76-.05-1.47-.12-2.1-.17h-.05c.59.24,1.26.51,1.98.74,1.43.46,2.97.94,4.66,1.4,1.58.37,3.43.74,5.65,1.12.53.04,1.16.11,1.76.17l.24.02c1.42.15,2.89.3,4.38.27,2.43.08,4.87-.08,6.94-.25,2.16-.22,4.51-.53,6.97-.92l6.8-1.13c2.42-.41,4.75-.69,6.51-.89l3.11-.28,4.44-.16,4.1.09c.87.04,1.67.11,2.45.17h.17c.73.07,1.41.13,2.08.17.77.04,1.5.12,2.16.22-.56-.27-1.18-.54-1.87-.74-.4-.13-.78-.27-1.18-.41Z" fill="#fff"/>
      <path d="M52.11,79.46c-8.98-.82-17.72-5.71-24.69-13.8,4.33,11.35,15.23,18.91,27.38,18.91s23.06-7.57,27.38-18.92c-6.97,8.09-15.71,12.98-24.69,13.8-1.91.21-3.49.21-5.39,0Z" fill="#fff"/>
      <path d="M83.78,52.41c0-21.72-25.7-49.05-28.06-51.28l-.14-.13-.98-1-1.24,1.34c-1.34,1.27-12.41,15.71-19.7,27.95l4.91-.77c4.41-7.47,11.3-17.81,14.38-20.44l1.67-1.52h0l.24.2h0l.13.11,1.52,1.32c6.79,5.94,23.03,28.36,23.03,44.22,0,2.49-.38,4.97-1.15,7.37,1.86-1.43,3.63-2.98,5.27-4.62.09-.92.13-1.84.13-2.75Z" fill="#fff"/>
      <g>
        <path d="M136.65,45.27h-21.69v18.71h-4.01V23.98h4.01v17.97h21.69v-17.97h4.01v40h-4.01v-18.71Z" fill="#fff"/>
        <path d="M162.94,32.28c6.29,0,10.59,3.38,12.36,7.33v-6.87h4.01v31.25h-4.01v-6.92c-1.83,4.01-6.18,7.38-12.42,7.38-8.53,0-14.88-6.35-14.88-16.14s6.35-16.03,14.94-16.03ZM163.68,35.77c-6.58,0-11.62,4.58-11.62,12.53s5.04,12.65,11.62,12.65,11.62-4.81,11.62-12.59-5.21-12.59-11.62-12.59Z" fill="#fff"/>
        <path d="M204.84,32.28c8.53,0,14.88,6.24,14.88,16.03s-6.35,16.14-14.88,16.14c-6.24,0-10.59-3.44-12.42-7.33v21.63h-3.95v-46.01h3.95v6.87c1.83-3.95,6.18-7.33,12.42-7.33ZM204.04,35.77c-6.35,0-11.62,4.81-11.62,12.59s5.26,12.59,11.62,12.59,11.62-4.75,11.62-12.65-5.04-12.53-11.62-12.53Z" fill="#fff"/>
        <path d="M243.48,32.28c8.53,0,14.88,6.24,14.88,16.03s-6.35,16.14-14.88,16.14c-6.24,0-10.59-3.44-12.42-7.33v21.63h-3.95v-46.01h3.95v6.87c1.83-3.95,6.18-7.33,12.42-7.33ZM242.68,35.77c-6.35,0-11.62,4.81-11.62,12.59s5.26,12.59,11.62,12.59,11.62-4.75,11.62-12.65-5.04-12.53-11.62-12.53Z" fill="#fff"/>
        <path d="M287.39,32.74h4.12l-18.54,45.96h-4.18l6.07-14.88-12.82-31.07h4.41l10.65,26.67,10.3-26.67Z" fill="#fff"/>
        <path d="M296.95,23.98h21.63v3.32h-17.63v14.94h14.88v3.32h-14.88v18.43h-4.01V23.98Z" fill="#fff"/>
        <path d="M324.26,23.87c0-1.72,1.32-2.92,2.92-2.92s2.92,1.2,2.92,2.92-1.32,2.98-2.92,2.98-2.92-1.26-2.92-2.98ZM325.17,32.74h4.01v31.25h-4.01v-31.25Z" fill="#fff"/>
        <path d="M338.28,21.63h4.01v42.35h-4.01V21.63Z" fill="#fff"/>
        <path d="M352.54,36.11h-4.35v-3.37h4.35v-7.84h4.06v7.84h8.58v3.37h-8.58v19.4c0,3.83,1.32,5.04,4.92,5.04h3.66v3.43h-4.29c-5.44,0-8.36-2.23-8.36-8.47v-19.4Z" fill="#fff"/>
        <path d="M385.28,64.44c-8.87,0-15.34-6.18-15.34-16.08s6.35-16.08,15.34-16.08,14.76,6.53,14.76,14.48c0,1.26,0,2.06-.11,3.15h-25.93c.34,7.33,5.44,11.16,11.27,11.16,5.32,0,8.93-2.81,10.07-6.98h4.23c-1.43,5.9-6.47,10.36-14.31,10.36ZM374.01,46.64h21.98c.17-7.27-5.09-10.93-10.87-10.93s-10.64,3.66-11.1,10.93Z" fill="#fff"/>
        <path d="M411.39,63.98h-4.01v-31.25h4.01v5.55c1.72-3.83,5.32-6.12,10.7-6.12v4.18h-1.09c-5.21,0-9.61,2.35-9.61,10.19v17.46Z" fill="#fff"/>
      </g>
    </g>
  </g>
</svg>