<svg xmlns="http://www.w3.org/2000/svg" viewBox="0 0 320 140" role="img" aria-label="WasserWelt logo">
  <rect width="320" height="140" rx="22" fill="#f4faff"/>
  <path d="M66 27C50 49 39 63 39 81a27 27 0 0 0 54 0c0-18-11-32-27-54Z" fill="#168bd2"/>
  <path d="M50 83c7 8 20 10 31 2-2 12-10 19-20 19-11 0-20-9-20-21 0-4 1-8 3-12 0 5 2 9 6 12Z" fill="#75c9ee"/>
  <text x="112" y="76" font-family="Arial,Helvetica,sans-serif" font-size="34" font-weight="700" fill="#153e5c">Wasser</text>
  <text x="112" y="108" font-family="Arial,Helvetica,sans-serif" font-size="34" font-weight="700" fill="#168bd2">Welt</text>
</svg>
